<svg width="218" height="70" viewBox="0 0 218 70" fill="none" xmlns="http://www.w3.org/2000/svg">
<path d="M2.20407 36.6603H0.92597V32.6564H0V31.6261H2.20407V36.6603Z" fill="white"/>
<path d="M4.83822 36.7127C4.21221 36.7127 3.6775 36.5693 3.22103 36.2954L3.70358 35.4086C4.00354 35.6172 4.35567 35.7346 4.75997 35.7346C5.15122 35.7346 5.45119 35.6172 5.64681 35.3825C5.84244 35.1477 5.94677 34.8217 5.93373 34.4043C5.68594 34.7565 5.28164 34.9391 4.73388 34.9391C4.2383 34.9391 3.84704 34.7956 3.56012 34.4956C3.26016 34.1957 3.1167 33.8044 3.1167 33.3219C3.1167 32.7872 3.28624 32.3698 3.62533 32.0568C3.96442 31.7438 4.42088 31.5873 4.99472 31.5873C5.6729 31.5873 6.19457 31.809 6.58582 32.2524C6.96404 32.6959 7.15967 33.3088 7.15967 34.0783C7.15967 34.8739 6.951 35.5129 6.53366 35.9954C6.10328 36.478 5.54248 36.7127 4.83822 36.7127ZM5.0208 34.0131C5.2686 34.0131 5.45119 33.9479 5.59465 33.8175C5.72506 33.687 5.80331 33.5175 5.80331 33.3088C5.80331 33.1132 5.73811 32.9437 5.60769 32.8132C5.47727 32.6828 5.29468 32.6176 5.04689 32.6176C4.81214 32.6176 4.62955 32.6828 4.49913 32.8132C4.36871 32.9437 4.3035 33.1132 4.3035 33.348C4.3035 33.5566 4.36871 33.7262 4.49913 33.8435C4.61651 33.9479 4.79909 34.0131 5.0208 34.0131Z" fill="white"/>
<path d="M9.72906 33.6873L9.96381 33.7265C10.342 33.7786 10.642 33.9351 10.8637 34.1699C11.0854 34.4046 11.2028 34.7176 11.2028 35.0959C11.2028 35.5784 11.0332 35.9697 10.6811 36.2696C10.329 36.5696 9.85948 36.7261 9.28564 36.7261C8.94655 36.7261 8.60746 36.6739 8.26837 36.5565C7.92929 36.4522 7.64237 36.2957 7.42065 36.1131L7.94233 35.148C8.32054 35.5523 8.73788 35.761 9.19434 35.761C9.44214 35.761 9.63776 35.7088 9.76818 35.5915C9.8986 35.4741 9.96381 35.3176 9.96381 35.1089C9.96381 34.6916 9.70297 34.4829 9.1813 34.4829H8.37271V33.8047L9.4943 32.644H7.66845V31.6659H10.9811V32.3832L9.72906 33.6873Z" fill="white"/>
<path d="M13.9545 31.5998C14.6718 31.5998 15.2196 31.8215 15.5978 32.2649C15.976 32.7083 16.1716 33.3344 16.1716 34.1429C16.1716 34.9646 15.976 35.5906 15.5978 36.034C15.2196 36.4774 14.6718 36.6991 13.9545 36.6991C13.2372 36.6991 12.6895 36.4774 12.2982 36.034C11.92 35.5906 11.7244 34.9646 11.7244 34.1429C11.7244 33.3213 11.92 32.6953 12.2982 32.2649C12.6895 31.8215 13.2372 31.5998 13.9545 31.5998ZM13.9545 32.5388C13.6285 32.5388 13.3937 32.6692 13.2503 32.917C13.1068 33.1648 13.0416 33.5822 13.0416 34.156C13.0416 34.7298 13.1068 35.1472 13.2503 35.395C13.3937 35.6428 13.6285 35.7732 13.9545 35.7732C14.2675 35.7732 14.5023 35.6428 14.6457 35.395C14.7892 35.1341 14.8674 34.7298 14.8674 34.156C14.8674 33.5822 14.7892 33.1779 14.6457 32.9301C14.5023 32.6692 14.2675 32.5388 13.9545 32.5388Z" fill="white"/>
<path d="M81.9941 35.0452C82.3 35.1782 82.5261 35.3777 82.6857 35.6171C82.8453 35.8698 82.9251 36.1624 82.9251 36.5082C82.9251 36.854 82.8453 37.1466 82.6857 37.3993C82.5261 37.652 82.2867 37.8515 81.9941 37.9845C81.6882 38.1175 81.3424 38.184 80.9301 38.184H79.8661V39.5406H78.9883V34.8324H80.9301C81.3424 34.8457 81.7015 34.9122 81.9941 35.0452ZM81.7547 37.2131C81.9542 37.0535 82.0473 36.8274 82.0473 36.5215C82.0473 36.2156 81.9542 35.9895 81.7547 35.8299C81.5552 35.6703 81.2626 35.5905 80.8902 35.5905H79.8661V37.4658H80.8902C81.2759 37.4525 81.5685 37.3727 81.7547 37.2131Z" fill="white"/>
<path d="M84.721 39.3019C84.3353 39.0891 84.0294 38.8098 83.8166 38.4374C83.5905 38.065 83.4841 37.6527 83.4841 37.2005C83.4841 36.7483 83.5905 36.336 83.8166 35.9636C84.0427 35.5912 84.3353 35.2986 84.721 35.0991C85.1067 34.8863 85.5456 34.7799 86.0244 34.7799C86.5032 34.7799 86.9421 34.8863 87.3278 35.0991C87.7135 35.3119 88.0194 35.5912 88.2322 35.9636C88.4583 36.336 88.5647 36.7483 88.5647 37.2138C88.5647 37.6793 88.4583 38.0916 88.2322 38.464C88.0061 38.8364 87.7135 39.1157 87.3278 39.3285C86.9421 39.5413 86.5032 39.6477 86.0244 39.6477C85.5323 39.6211 85.0934 39.5147 84.721 39.3019ZM86.8623 38.6369C87.115 38.4906 87.3145 38.3044 87.4475 38.0384C87.5938 37.7857 87.6603 37.5064 87.6603 37.1872C87.6603 36.868 87.5938 36.5887 87.4475 36.336C87.3012 36.0833 87.1017 35.8838 86.8623 35.7375C86.6096 35.5912 86.3303 35.5247 86.0111 35.5247C85.6919 35.5247 85.4126 35.5912 85.1599 35.7375C84.9072 35.8838 84.7077 36.07 84.5614 36.336C84.4151 36.5887 84.3486 36.868 84.3486 37.1872C84.3486 37.5064 84.4151 37.7857 84.5614 38.0384C84.7077 38.2911 84.9072 38.4906 85.1599 38.6369C85.4126 38.7832 85.6919 38.8497 86.0111 38.8497C86.3303 38.8497 86.6096 38.7832 86.8623 38.6369Z" fill="white"/>
<path d="M90.4002 39.3016C90.0145 39.0888 89.7219 38.8095 89.4958 38.4371C89.283 38.0647 89.1633 37.6524 89.1633 37.1869C89.1633 36.7214 89.2697 36.3091 89.4958 35.9367C89.7219 35.5643 90.0145 35.285 90.4002 35.0722C90.7859 34.8594 91.2115 34.753 91.6903 34.753C92.076 34.753 92.4218 34.8195 92.741 34.9525C93.0602 35.0855 93.3262 35.285 93.5523 35.5377L92.9937 36.0697C92.6479 35.6973 92.2356 35.5244 91.7302 35.5244C91.411 35.5244 91.1184 35.5909 90.8657 35.7372C90.613 35.8835 90.4135 36.0697 90.2672 36.3224C90.1209 36.5751 90.0544 36.8544 90.0544 37.1736C90.0544 37.4928 90.1209 37.7721 90.2672 38.0248C90.4135 38.2775 90.613 38.477 90.8657 38.61C91.1184 38.7563 91.411 38.8228 91.7302 38.8228C92.2223 38.8228 92.6479 38.6366 92.9937 38.2642L93.5523 38.7962C93.3262 39.0489 93.0602 39.2484 92.741 39.3814C92.4218 39.5144 92.0627 39.5809 91.677 39.5809C91.2115 39.6208 90.7726 39.5144 90.4002 39.3016Z" fill="white"/>
<path d="M95.1483 39.3016C94.7626 39.0888 94.47 38.8095 94.2439 38.4371C94.0311 38.0647 93.9114 37.6524 93.9114 37.1869C93.9114 36.7214 94.0178 36.3091 94.2439 35.9367C94.47 35.5643 94.7626 35.285 95.1483 35.0722C95.534 34.8594 95.9596 34.753 96.4384 34.753C96.8241 34.753 97.1699 34.8195 97.4891 34.9525C97.8083 35.0855 98.0743 35.285 98.3004 35.5377L97.7418 36.0697C97.396 35.6973 96.9837 35.5244 96.4783 35.5244C96.1591 35.5244 95.8665 35.5909 95.6138 35.7372C95.3611 35.8835 95.1616 36.0697 95.0153 36.3224C94.869 36.5751 94.8025 36.8544 94.8025 37.1736C94.8025 37.4928 94.869 37.7721 95.0153 38.0248C95.1616 38.2775 95.3611 38.477 95.6138 38.61C95.8665 38.7563 96.1591 38.8228 96.4783 38.8228C96.9704 38.8228 97.396 38.6366 97.7418 38.2642L98.3004 38.7962C98.0743 39.0489 97.8083 39.2484 97.4891 39.3814C97.1699 39.5144 96.8108 39.5809 96.4251 39.5809C95.9596 39.6208 95.534 39.5144 95.1483 39.3016Z" fill="white"/>
<path d="M99.1243 34.8452H99.9888V38.1835L102.516 34.8452H103.327V39.5534H102.463V36.2151L99.9356 39.5534H99.1243V34.8452Z" fill="white"/>
<path d="M104.657 34.8457H105.522V38.184L108.049 34.8457H108.86V39.5539H107.996V36.2156L105.469 39.5539H104.657V34.8457ZM105.828 34.2738C105.628 34.1142 105.522 33.8615 105.509 33.5423H106.12C106.12 33.7019 106.174 33.8349 106.28 33.928C106.386 34.0211 106.533 34.061 106.732 34.061C106.932 34.061 107.078 34.0211 107.184 33.928C107.291 33.8349 107.357 33.7152 107.357 33.5423H107.969C107.969 33.8615 107.863 34.1009 107.65 34.2605C107.437 34.4334 107.131 34.5132 106.732 34.5132C106.347 34.5265 106.041 34.4467 105.828 34.2738Z" fill="white"/>
<path d="M111.055 39.3016C110.669 39.0888 110.376 38.8095 110.15 38.4371C109.938 38.0647 109.818 37.6524 109.818 37.1869C109.818 36.7214 109.924 36.3091 110.15 35.9367C110.376 35.5643 110.669 35.285 111.055 35.0722C111.44 34.8594 111.866 34.753 112.345 34.753C112.731 34.753 113.076 34.8195 113.396 34.9525C113.715 35.0855 113.981 35.285 114.207 35.5377L113.648 36.0697C113.302 35.6973 112.89 35.5244 112.385 35.5244C112.066 35.5244 111.773 35.5909 111.52 35.7372C111.268 35.8835 111.068 36.0697 110.922 36.3224C110.775 36.5751 110.709 36.8544 110.709 37.1736C110.709 37.4928 110.775 37.7721 110.922 38.0248C111.068 38.2775 111.268 38.477 111.52 38.61C111.773 38.7563 112.066 38.8228 112.385 38.8228C112.877 38.8228 113.302 38.6366 113.648 38.2642L114.207 38.7962C113.981 39.0489 113.715 39.2484 113.396 39.3814C113.076 39.5144 112.717 39.5809 112.332 39.5809C111.866 39.6208 111.44 39.5144 111.055 39.3016Z" fill="white"/>
<path d="M116.76 37.5717H115.883V39.5534H115.018V34.8452H115.883V36.8136H116.787L118.144 34.8452H119.075L117.465 37.1195L119.128 39.5534H118.144L116.76 37.5717Z" fill="white"/>
<path d="M119.74 34.8452H120.604V38.1835L123.131 34.8452H123.943V39.5534H123.078V36.2151L120.551 39.5534H119.74V34.8452Z" fill="white"/>
<path d="M125.259 34.8457H126.123V38.184L128.65 34.8457H129.462V39.5539H128.597V36.2156L126.07 39.5539H125.259V34.8457ZM126.442 34.2738C126.243 34.1142 126.137 33.8615 126.123 33.5423H126.735C126.735 33.7019 126.788 33.8349 126.895 33.928C127.001 34.0211 127.147 34.061 127.347 34.061C127.546 34.061 127.693 34.0211 127.799 33.928C127.906 33.8349 127.972 33.7152 127.972 33.5423H128.584C128.584 33.8615 128.477 34.1009 128.265 34.2605C128.052 34.4334 127.746 34.5132 127.347 34.5132C126.948 34.5265 126.642 34.4467 126.442 34.2738Z" fill="white"/>
<path d="M79.0012 42.918H82.672V43.6362H79.8657V44.7933H81.2622C81.8208 44.7933 82.2597 44.913 82.5523 45.1524C82.8449 45.3918 82.9912 45.7243 82.9912 46.1766C82.9912 46.6421 82.8316 47.0011 82.5124 47.2538C82.1932 47.5065 81.7277 47.6396 81.1292 47.6396H79.0145V42.918H79.0012ZM81.076 46.9479C81.4085 46.9479 81.6612 46.8814 81.8474 46.7484C82.0203 46.6154 82.1134 46.4292 82.1134 46.1898C82.1134 45.711 81.7676 45.4583 81.0893 45.4583H79.879V46.9479H81.076Z" fill="white"/>
<path d="M83.9487 42.918H84.8132V46.2563L87.3402 42.918H88.1515V47.6262H87.287V44.2879L84.76 47.6262H83.9487V42.918Z" fill="white"/>
<path d="M90.3468 47.3748C89.9611 47.162 89.6552 46.8827 89.4424 46.5103C89.2163 46.1379 89.1099 45.7256 89.1099 45.2734C89.1099 44.8212 89.2163 44.4089 89.4424 44.0365C89.6685 43.6641 89.9611 43.3715 90.3468 43.172C90.7325 42.9592 91.1714 42.8528 91.6502 42.8528C92.129 42.8528 92.5679 42.9592 92.9536 43.172C93.3393 43.3848 93.6452 43.6641 93.858 44.0365C94.0841 44.4089 94.1905 44.8212 94.1905 45.2867C94.1905 45.7522 94.0841 46.1645 93.858 46.5369C93.6319 46.9093 93.3393 47.1886 92.9536 47.4014C92.5679 47.6142 92.129 47.7206 91.6502 47.7206C91.1714 47.694 90.7325 47.5876 90.3468 47.3748ZM92.5014 46.7098C92.7541 46.5635 92.9536 46.3773 93.0999 46.1113C93.2462 45.8586 93.3127 45.5793 93.3127 45.2601C93.3127 44.9409 93.2462 44.6616 93.0999 44.4089C92.9536 44.1562 92.7541 43.9567 92.5014 43.8104C92.2487 43.6641 91.9694 43.5976 91.6502 43.5976C91.331 43.5976 91.0517 43.6641 90.799 43.8104C90.5463 43.9567 90.3468 44.1429 90.2138 44.4089C90.0675 44.6616 90.001 44.9409 90.001 45.2601C90.001 45.5793 90.0675 45.8586 90.2138 46.1113C90.3601 46.364 90.5596 46.5635 90.799 46.7098C91.0517 46.8561 91.331 46.9226 91.6502 46.9226C91.9694 46.9226 92.2487 46.8561 92.5014 46.7098Z" fill="white"/>
<path d="M98.4999 43.6501H96.9438V47.6135H96.0793V43.6501H94.5232V42.9053H98.4999V43.6501Z" fill="white"/>
<path d="M102.782 46.8947V47.6262H99.2444V42.918H102.676V43.6495H100.109V44.8731H102.383V45.5913H100.109V46.8947H102.782Z" fill="white"/>
<path d="M104.259 42.918L105.362 44.4874L106.466 42.918H107.49L105.908 45.179L107.61 47.6262H106.573L105.349 45.9106L104.126 47.6262H103.115L104.817 45.2056L103.221 42.918H104.259Z" fill="white"/>
<path d="M112.398 42.918V47.6262H111.52V45.6046H109.086V47.6262H108.208V42.918H109.086V44.8598H111.52V42.918H112.398Z" fill="white"/>
<path d="M114.592 47.3748C114.207 47.162 113.901 46.8827 113.688 46.5103C113.462 46.1379 113.355 45.7256 113.355 45.2734C113.355 44.8212 113.462 44.4089 113.688 44.0365C113.914 43.6641 114.207 43.3715 114.592 43.172C114.978 42.9592 115.417 42.8528 115.896 42.8528C116.375 42.8528 116.813 42.9592 117.199 43.172C117.585 43.3848 117.891 43.6641 118.104 44.0365C118.33 44.4089 118.436 44.8212 118.436 45.2867C118.436 45.7522 118.33 46.1645 118.104 46.5369C117.877 46.9093 117.585 47.1886 117.199 47.4014C116.813 47.6142 116.375 47.7206 115.896 47.7206C115.417 47.694 114.978 47.5876 114.592 47.3748ZM116.734 46.7098C116.986 46.5635 117.186 46.3773 117.319 46.1113C117.465 45.8586 117.532 45.5793 117.532 45.2601C117.532 44.9409 117.465 44.6616 117.319 44.4089C117.173 44.1562 116.973 43.9567 116.734 43.8104C116.481 43.6641 116.202 43.5976 115.882 43.5976C115.563 43.5976 115.284 43.6641 115.031 43.8104C114.779 43.9567 114.579 44.1429 114.433 44.4089C114.286 44.6616 114.22 44.9409 114.22 45.2601C114.22 45.5793 114.286 45.8586 114.433 46.1113C114.579 46.364 114.779 46.5635 115.031 46.7098C115.284 46.8561 115.563 46.9226 115.882 46.9226C116.202 46.9226 116.494 46.8561 116.734 46.7098Z" fill="white"/>
<path d="M123.291 42.918V47.6262H122.426V43.6628H120.564L120.524 44.8465C120.498 45.5115 120.445 46.0435 120.365 46.4558C120.285 46.8681 120.139 47.174 119.952 47.3868C119.766 47.5996 119.5 47.7061 119.168 47.7061C119.048 47.7061 118.888 47.6795 118.689 47.6396L118.755 46.8814C118.809 46.8947 118.875 46.9081 118.955 46.9081C119.234 46.9081 119.42 46.7484 119.54 46.4159C119.66 46.0967 119.726 45.578 119.753 44.8731L119.819 42.918H123.291Z" fill="white"/>
<path d="M125.485 47.3748C125.1 47.162 124.794 46.8827 124.581 46.5103C124.355 46.1379 124.249 45.7256 124.249 45.2734C124.249 44.8212 124.355 44.4089 124.581 44.0365C124.807 43.6641 125.1 43.3715 125.485 43.172C125.871 42.9592 126.31 42.8528 126.789 42.8528C127.268 42.8528 127.707 42.9592 128.092 43.172C128.478 43.3848 128.784 43.6641 128.997 44.0365C129.223 44.4089 129.329 44.8212 129.329 45.2867C129.329 45.7522 129.223 46.1645 128.997 46.5369C128.771 46.9093 128.478 47.1886 128.092 47.4014C127.707 47.6142 127.268 47.7206 126.789 47.7206C126.31 47.694 125.871 47.5876 125.485 47.3748ZM127.64 46.7098C127.893 46.5635 128.092 46.3773 128.225 46.1113C128.372 45.8586 128.438 45.5793 128.438 45.2601C128.438 44.9409 128.372 44.6616 128.225 44.4089C128.079 44.1562 127.879 43.9567 127.64 43.8104C127.387 43.6641 127.108 43.5976 126.789 43.5976C126.47 43.5976 126.19 43.6641 125.938 43.8104C125.685 43.9567 125.485 44.1429 125.339 44.4089C125.193 44.6616 125.126 44.9409 125.126 45.2601C125.126 45.5793 125.193 45.8586 125.339 46.1113C125.485 46.364 125.685 46.5635 125.938 46.7098C126.19 46.8561 126.47 46.9226 126.789 46.9226C127.108 46.9226 127.387 46.8561 127.64 46.7098Z" fill="white"/>
<path d="M133.492 43.6501H131.151L131.165 47.6135H130.3V42.9053H133.492V43.6501Z" fill="white"/>
<path d="M134.237 42.918H135.102V46.2563L137.629 42.918H138.44V47.6262H137.576V44.2879L135.049 47.6262H134.237V42.918Z" fill="white"/>
<path d="M143.294 42.9186V47.6268H142.429V45.8446C141.99 46.0042 141.565 46.0973 141.166 46.0973C140.567 46.0973 140.102 45.951 139.783 45.6584C139.463 45.3658 139.291 44.9535 139.291 44.4082V42.9053H140.155V44.3151C140.155 44.6476 140.248 44.9003 140.448 45.0732C140.634 45.2461 140.913 45.3392 141.272 45.3392C141.685 45.3392 142.07 45.2594 142.429 45.0865V42.9053H143.294V42.9186Z" fill="white"/>
<path d="M148.149 46.8947V47.6262H144.611V42.918H148.042V43.6495H145.475V44.8731H147.75V45.5913H145.475V46.8947H148.149Z" fill="white"/>
<path d="M149.984 47.3744C149.598 47.1616 149.306 46.8823 149.08 46.5099C148.867 46.1375 148.747 45.7252 148.747 45.2597C148.747 44.7942 148.853 44.3819 149.08 44.0095C149.306 43.6371 149.598 43.3578 149.984 43.145C150.37 42.9322 150.795 42.8258 151.274 42.8258C151.66 42.8258 152.006 42.8923 152.325 43.0253C152.644 43.1583 152.91 43.3578 153.136 43.6105L152.577 44.1425C152.232 43.7701 151.819 43.5972 151.314 43.5972C150.995 43.5972 150.702 43.6637 150.449 43.81C150.197 43.9563 149.997 44.1425 149.851 44.3952C149.705 44.6479 149.638 44.9272 149.638 45.2464C149.638 45.5656 149.705 45.8449 149.851 46.0976C149.997 46.3503 150.197 46.5498 150.449 46.6828C150.702 46.8291 150.995 46.8956 151.314 46.8956C151.806 46.8956 152.232 46.7094 152.577 46.337L153.136 46.869C152.91 47.1217 152.644 47.3212 152.325 47.4542C152.006 47.5872 151.646 47.6537 151.261 47.6537C150.795 47.6936 150.37 47.5872 149.984 47.3744Z" fill="white"/>
<path d="M155.69 45.6446H154.812V47.6262H153.948V42.918H154.812V44.8864H155.716L157.073 42.918H158.004L156.395 45.1923L158.057 47.6262H157.073L155.69 45.6446Z" fill="white"/>
<path d="M158.656 42.918H159.52V46.2563L162.047 42.918H162.859V47.6262H161.994V44.2879L159.467 47.6262H158.656V42.918Z" fill="white"/>
<path d="M164.189 42.9186H165.053V46.2569L167.58 42.9186H168.392V47.6268H167.527V44.2885L165 47.6268H164.189V42.9186ZM165.373 42.3467C165.173 42.1871 165.067 41.9344 165.053 41.6152H165.665C165.665 41.7748 165.718 41.9078 165.825 42.0009C165.931 42.094 166.078 42.1339 166.277 42.1339C166.463 42.1339 166.623 42.094 166.729 42.0009C166.836 41.9078 166.902 41.7881 166.902 41.6152H167.514C167.514 41.9344 167.408 42.1738 167.195 42.3334C166.982 42.5063 166.676 42.5861 166.277 42.5861C165.878 42.5994 165.572 42.5196 165.373 42.3467Z" fill="white"/>
<path d="M83.0449 50.9923L80.9967 54.7961C80.8105 55.1286 80.5977 55.3813 80.3583 55.5542C80.1056 55.7271 79.8396 55.8069 79.547 55.8069C79.3076 55.8069 79.0815 55.7537 78.8554 55.6606L79.0682 54.969C79.2544 55.0222 79.4007 55.0621 79.5204 55.0621C79.7997 55.0621 80.0391 54.9158 80.2253 54.6232L80.3051 54.5035L78.4165 50.9923H79.3475L80.744 53.7587L82.1804 50.9923H83.0449Z" fill="white"/>
<path d="M87.8333 50.9923V55.7005H86.9555V53.6789H84.5216V55.7005H83.6438V50.9923H84.5216V52.9341H86.9555V50.9923H87.8333Z" fill="white"/>
<path d="M89.1489 50.9923H90.0134V54.3306L92.5404 50.9923H93.3517V55.7005H92.4872V52.3622L89.9602 55.7005H89.1489V50.9923Z" fill="white"/>
<path d="M98.4601 53.6656C98.6197 53.8651 98.6995 54.1045 98.6995 54.3971C98.6995 54.8094 98.5532 55.1286 98.2473 55.3547C97.9414 55.5808 97.5025 55.7005 96.9173 55.7005H94.6829V50.9923H96.7843C97.3163 50.9923 97.7286 51.0987 98.0212 51.3115C98.3138 51.5243 98.4601 51.8169 98.4601 52.2026C98.4601 52.4553 98.4069 52.6681 98.2872 52.841C98.1675 53.0139 97.9946 53.1602 97.7685 53.2533C98.0744 53.3331 98.3005 53.4661 98.4601 53.6656ZM95.5474 53.0006H96.7178C96.9971 53.0006 97.2099 52.9474 97.3695 52.8277C97.5158 52.7213 97.5956 52.5484 97.5956 52.3356C97.5956 52.1095 97.5158 51.9499 97.3695 51.8302C97.2232 51.7105 97.0104 51.6573 96.7178 51.6573H95.5474V53.0006ZM97.8217 54.3306C97.8217 53.8784 97.5158 53.639 96.8907 53.639H95.5474V55.0222H96.8907C97.5025 55.0222 97.8217 54.7961 97.8217 54.3306Z" fill="white"/>
<path d="M103.222 54.969V55.7005H99.697V50.9923H103.128V51.7238H100.562V52.9474H102.836V53.6656H100.562V54.969H103.222Z" fill="white"/>
<path d="M107.211 51.1909C107.517 51.3239 107.743 51.5234 107.903 51.7628C108.062 52.0155 108.142 52.3081 108.142 52.6539C108.142 52.9997 108.062 53.2923 107.903 53.545C107.743 53.7977 107.504 53.9972 107.211 54.1302C106.905 54.2632 106.559 54.3297 106.147 54.3297H105.083V55.6863H104.205V50.9781H106.147C106.546 50.9914 106.905 51.0579 107.211 51.1909ZM106.972 53.3588C107.171 53.1992 107.264 52.9731 107.264 52.6672C107.264 52.3613 107.171 52.1352 106.972 51.9756C106.772 51.816 106.48 51.7362 106.107 51.7362H105.083V53.6115H106.107C106.48 53.5982 106.772 53.5184 106.972 53.3588Z" fill="white"/>
<path d="M109.911 55.4472C109.525 55.2344 109.233 54.9551 109.007 54.5827C108.794 54.2103 108.674 53.798 108.674 53.3325C108.674 52.867 108.78 52.4547 109.007 52.0823C109.233 51.7099 109.525 51.4306 109.911 51.2178C110.297 51.005 110.722 50.8986 111.201 50.8986C111.587 50.8986 111.933 50.9651 112.252 51.0981C112.571 51.2311 112.837 51.4306 113.063 51.6833L112.504 52.2153C112.159 51.8429 111.746 51.67 111.241 51.67C110.922 51.67 110.629 51.7365 110.376 51.8828C110.124 52.0291 109.924 52.2153 109.778 52.468C109.632 52.7207 109.565 53 109.565 53.3192C109.565 53.6384 109.632 53.9177 109.778 54.1704C109.924 54.4231 110.124 54.6226 110.376 54.7556C110.629 54.9019 110.922 54.9684 111.241 54.9684C111.733 54.9684 112.159 54.7822 112.504 54.4098L113.063 54.9418C112.837 55.1945 112.571 55.394 112.252 55.527C111.933 55.66 111.573 55.7265 111.188 55.7265C110.722 55.7664 110.297 55.66 109.911 55.4472Z" fill="white"/>
<path d="M113.887 50.9923H114.751V54.3306L117.278 50.9923H118.09V55.7005H117.225V52.3622L114.698 55.7005H113.887V50.9923Z" fill="white"/>
<path d="M122.839 51.7229H121.283V55.6863H120.418V51.7229H118.849V50.9781H122.826V51.7229H122.839Z" fill="white"/>
<path d="M127.121 54.969V55.7005H123.583V50.9923H127.015V51.7238H124.448V52.9474H126.722V53.6656H124.448V54.969H127.121Z" fill="white"/>
<path d="M131.51 51.7229H129.954V55.6863H129.089V51.7229H127.533V50.9781H131.51V51.7229Z" fill="white"/>
<path d="M89.8811 14.8837C89.0299 14.1522 87.7797 13.7798 86.1305 13.7798H78.4165V25.7764H81.4622V22.0923H86.1172C87.7797 22.0923 89.0299 21.7199 89.8678 20.9751C90.719 20.2303 91.1313 19.2195 91.1313 17.9294C91.1446 16.6393 90.7323 15.6285 89.8811 14.8837ZM87.5669 19.1796C87.2078 19.4855 86.6891 19.6451 86.0108 19.6451H81.3159V16.2403H86.0108C86.7024 16.2403 87.2211 16.3866 87.5669 16.6925C87.926 16.9984 88.0989 17.4107 88.0989 17.9294C88.0989 18.4614 87.926 18.8737 87.5669 19.1796Z" fill="white"/>
<path d="M105.096 14.3782C103.899 13.8329 102.45 13.5669 100.747 13.5669C99.0449 13.5669 97.5952 13.8329 96.3982 14.3782C95.2012 14.9235 94.2968 15.655 93.685 16.5993C93.0732 17.5303 92.7673 18.5943 92.7673 19.7913C92.7673 20.975 93.0732 22.039 93.685 22.9833C94.2968 23.9143 95.2012 24.6591 96.3982 25.2044C97.5952 25.7497 99.0449 26.0157 100.747 26.0157C102.45 26.0157 103.899 25.7497 105.096 25.2044C106.293 24.6591 107.198 23.9276 107.81 22.9833C108.421 22.0523 108.727 20.9883 108.727 19.7913C108.727 18.6076 108.421 17.5436 107.81 16.5993C107.185 15.655 106.28 14.9235 105.096 14.3782ZM105.11 21.6932C104.737 22.2651 104.179 22.704 103.447 23.0365C102.716 23.3557 101.811 23.5286 100.747 23.5286C99.6833 23.5286 98.7789 23.369 98.0474 23.0365C97.3159 22.7173 96.7573 22.2651 96.3849 21.6932C96.0125 21.1213 95.8263 20.4962 95.8263 19.778C95.8263 19.0731 96.0125 18.4347 96.3849 17.8628C96.7573 17.2909 97.3159 16.852 98.0474 16.5328C98.7789 16.2136 99.6833 16.0407 100.747 16.0407C101.811 16.0407 102.716 16.2003 103.447 16.5328C104.179 16.852 104.737 17.3042 105.11 17.8628C105.482 18.4347 105.668 19.0598 105.668 19.778C105.668 20.4962 105.482 21.1213 105.11 21.6932Z" fill="white"/>
<path d="M115.669 16.5324C116.401 16.2132 117.265 16.0403 118.276 16.0403C119.712 16.0403 120.83 16.2797 121.641 16.7718C122.439 17.2639 122.931 17.8624 123.104 18.5673H126.15C125.99 17.6097 125.591 16.7452 124.953 16.0004C124.314 15.2423 123.436 14.6438 122.319 14.2049C121.189 13.766 119.845 13.5399 118.289 13.5399C116.627 13.5399 115.204 13.8059 114.02 14.3512C112.85 14.8832 111.959 15.628 111.347 16.5723C110.735 17.5166 110.442 18.5806 110.442 19.7643C110.442 20.948 110.748 22.012 111.347 22.9563C111.959 23.9006 112.85 24.6321 114.02 25.1774C115.19 25.7094 116.614 25.9887 118.289 25.9887C119.872 25.9887 121.215 25.7759 122.346 25.337C123.476 24.8981 124.354 24.3129 124.979 23.5548C125.604 22.7967 126.003 21.9322 126.163 20.9613H123.117C122.944 21.6662 122.466 22.2647 121.654 22.7568C120.856 23.2489 119.739 23.4883 118.289 23.4883C117.279 23.4883 116.401 23.3287 115.683 22.9962C114.951 22.677 114.406 22.2248 114.047 21.6529C113.674 21.081 113.501 20.4559 113.501 19.7377C113.501 19.0328 113.688 18.3944 114.047 17.8225C114.392 17.3038 114.938 16.8649 115.669 16.5324Z" fill="white"/>
<path d="M140.115 19.2727C139.344 18.6077 138.213 18.2752 136.737 18.2752H131.044V16.1339H140.594V13.7798H128.198V25.7764H136.737C138.226 25.7764 139.344 25.4439 140.115 24.7789C140.886 24.1139 141.272 23.1962 141.272 22.0258C141.272 20.8554 140.886 19.951 140.115 19.2727ZM137.748 23.01C137.428 23.2893 136.976 23.4356 136.378 23.4356H131.164V20.3633H136.378C136.976 20.3633 137.428 20.4963 137.748 20.7756C138.067 21.0549 138.226 21.4273 138.226 21.8928C138.226 22.3583 138.067 22.7307 137.748 23.01Z" fill="white"/>
<path d="M157.246 13.7798H152.498L146.247 23.7149V20.8687C146.247 20.8421 146.247 20.8288 146.247 20.8022V13.7798H143.321V24.9518V25.7764H148.069L154.32 15.8413V18.6875C154.32 18.7141 154.32 18.7274 154.32 18.754V25.7764H157.246V14.6044V13.7798Z" fill="white"/>
<path d="M171.782 14.3782C170.585 13.8329 169.136 13.5669 167.433 13.5669C165.731 13.5669 164.281 13.8329 163.084 14.3782C161.887 14.9235 160.983 15.655 160.371 16.5993C159.759 17.5303 159.453 18.5943 159.453 19.7913C159.453 20.975 159.759 22.039 160.371 22.9833C160.983 23.9143 161.887 24.6591 163.084 25.2044C164.281 25.7497 165.731 26.0157 167.433 26.0157C169.136 26.0157 170.585 25.7497 171.782 25.2044C172.979 24.6591 173.884 23.9276 174.496 22.9833C175.107 22.0523 175.413 20.9883 175.413 19.7913C175.413 18.6076 175.107 17.5436 174.496 16.5993C173.884 15.655 172.979 14.9235 171.782 14.3782ZM171.796 21.6932C171.423 22.2651 170.865 22.704 170.133 23.0365C169.402 23.3557 168.497 23.5286 167.433 23.5286C166.369 23.5286 165.465 23.369 164.733 23.0365C164.002 22.7173 163.443 22.2651 163.071 21.6932C162.699 21.1213 162.512 20.4962 162.512 19.778C162.512 19.0731 162.699 18.4347 163.071 17.8628C163.443 17.2909 164.002 16.852 164.733 16.5328C165.465 16.2136 166.369 16.0407 167.433 16.0407C168.497 16.0407 169.402 16.2003 170.133 16.5328C170.865 16.852 171.423 17.3042 171.796 17.8628C172.168 18.4347 172.354 19.0598 172.354 19.778C172.354 20.4962 172.168 21.1213 171.796 21.6932Z" fill="white"/>
<path d="M175.786 16.3201H180.72V25.7764H183.766V16.3201H188.713V13.7798H175.786V16.3201Z" fill="white"/>
<path d="M190.283 25.7764H202.2V23.3824H193.329V20.7623H200.989V18.621H193.329V16.1871H202.2V13.7798H190.283V25.7764Z" fill="white"/>
<path d="M212.786 19.6983L217.84 13.7798H217.8H214.063L210.539 17.9294L208.357 15.3625L207.014 13.7798H203.277H203.237L208.291 19.6983L203.064 25.7764H203.17H206.908L209.701 22.4913C209.701 22.4913 209.701 22.4913 209.714 22.478L210.525 21.5204L214.143 25.7897H214.156H217.88H218L212.786 19.6983Z" fill="white"/>
<path d="M2.2477 37.3864H0.944301V33.3033H0V32.2526H2.2477V37.3864Z" fill="white"/>
<path d="M4.9348 37.4396C4.2964 37.4396 3.7511 37.2932 3.2856 37.0139L3.7777 36.1096C4.0836 36.3224 4.4427 36.4421 4.855 36.4421C5.254 36.4421 5.5599 36.3223 5.7594 36.0829C5.9589 35.8435 6.0653 35.511 6.052 35.0854C5.7993 35.4445 5.387 35.6307 4.8284 35.6307C4.323 35.6307 3.924 35.4845 3.6314 35.1786C3.3255 34.8726 3.1792 34.4736 3.1792 33.9815C3.1792 33.4362 3.3521 33.0106 3.6979 32.6914C4.0437 32.3722 4.5092 32.2126 5.0944 32.2126C5.786 32.2126 6.318 32.4387 6.717 32.8909C7.1027 33.3431 7.3022 33.9682 7.3022 34.7529C7.3022 35.5642 7.0894 36.216 6.6638 36.7081C6.2249 37.2002 5.653 37.4396 4.9348 37.4396ZM5.121 34.6864C5.3737 34.6864 5.5599 34.6199 5.7062 34.4869C5.8392 34.3539 5.919 34.181 5.919 33.9682C5.919 33.7687 5.8525 33.5958 5.7195 33.4628C5.5865 33.3298 5.4003 33.2633 5.1476 33.2633C4.9082 33.2633 4.722 33.3298 4.589 33.4628C4.456 33.5958 4.3895 33.7687 4.3895 34.0081C4.3895 34.2209 4.456 34.3938 4.589 34.5135C4.7087 34.6199 4.8949 34.6864 5.121 34.6864Z" fill="white"/>
<path d="M9.92173 34.3536L10.1611 34.3935C10.5468 34.4467 10.8527 34.6063 11.0788 34.8457C11.3049 35.0851 11.4246 35.4043 11.4246 35.79C11.4246 36.2821 11.2517 36.6811 10.8926 36.987C10.5335 37.2929 10.0547 37.4525 9.46953 37.4525C9.12373 37.4525 8.77793 37.3993 8.43213 37.2796C8.08633 37.1732 7.79373 37.0136 7.56763 36.8274L8.09963 35.8432C8.48533 36.2555 8.91093 36.4683 9.37643 36.4683C9.62913 36.4683 9.82863 36.4151 9.96163 36.2954C10.0946 36.1757 10.1611 36.0161 10.1611 35.8033C10.1611 35.3777 9.89513 35.1649 9.36313 35.1649H8.53853V34.4733L9.68233 33.2896H7.82033V32.2921H11.1985V33.0236L9.92173 34.3536Z" fill="white"/>
<path d="M14.2311 32.2254C14.9626 32.2254 15.5212 32.4515 15.9069 32.9037C16.2926 33.3559 16.4921 33.9943 16.4921 34.8189C16.4921 35.6568 16.2926 36.2952 15.9069 36.7474C15.5212 37.1996 14.9626 37.4257 14.2311 37.4257C13.4996 37.4257 12.941 37.1996 12.542 36.7474C12.1563 36.2952 11.9568 35.6568 11.9568 34.8189C11.9568 33.981 12.1563 33.3426 12.542 32.9037C12.941 32.4515 13.4996 32.2254 14.2311 32.2254ZM14.2311 33.183C13.8986 33.183 13.6592 33.316 13.5129 33.5687C13.3666 33.8214 13.3001 34.247 13.3001 34.8322C13.3001 35.4174 13.3666 35.843 13.5129 36.0957C13.6592 36.3484 13.8986 36.4814 14.2311 36.4814C14.5503 36.4814 14.7897 36.3484 14.936 36.0957C15.0823 35.8297 15.1621 35.4174 15.1621 34.8322C15.1621 34.247 15.0823 33.8347 14.936 33.582C14.7897 33.316 14.5503 33.183 14.2311 33.183Z" fill="white"/>
<path fill-rule="evenodd" clip-rule="evenodd" d="M33.9673 5.6263C33.9673 5.9322 34.2067 6.1716 34.5126 6.1716C34.8185 6.1716 35.0579 5.9322 35.0579 5.6263C35.0579 5.3204 34.8185 5.081 34.5126 5.081C34.22 5.081 33.9673 5.3337 33.9673 5.6263Z" fill="white"/>
<path d="M34.327 9.23069C34.731 9.23069 35.0585 8.90318 35.0585 8.49919C35.0585 8.09519 34.731 7.76768 34.327 7.76768C33.923 7.76768 33.5955 8.09519 33.5955 8.49919C33.5955 8.90318 33.923 9.23069 34.327 9.23069Z" fill="white"/>
<path d="M31.999 7.72685C32.7041 7.72685 33.2758 7.1552 33.2758 6.45005C33.2758 5.74489 32.7041 5.17325 31.999 5.17325C31.2938 5.17325 30.7222 5.74489 30.7222 6.45005C30.7222 7.1552 31.2938 7.72685 31.999 7.72685Z" fill="white"/>
<path d="M28.8863 10.9199C29.7971 10.9199 30.5355 10.1815 30.5355 9.2707C30.5355 8.35987 29.7971 7.6215 28.8863 7.6215C27.9754 7.6215 27.2371 8.35987 27.2371 9.2707C27.2371 10.1815 27.9754 10.9199 28.8863 10.9199Z" fill="white"/>
<path d="M23.1864 13.4398C24.0279 13.0912 24.4275 12.1264 24.0789 11.2849C23.7304 10.4434 22.7656 10.0438 21.9241 10.3924C21.0826 10.7409 20.683 11.7057 21.0315 12.5472C21.3801 13.3887 22.3449 13.7883 23.1864 13.4398Z" fill="white"/>
<path d="M17.1162 17.7949C18.0271 17.7949 18.7654 17.0565 18.7654 16.1457C18.7654 15.2348 18.0271 14.4965 17.1162 14.4965C16.2054 14.4965 15.467 15.2348 15.467 16.1457C15.467 17.0565 16.2054 17.7949 17.1162 17.7949Z" fill="white"/>
<path d="M12.887 23.2477C13.7978 23.2477 14.5362 22.5093 14.5362 21.5985C14.5362 20.6877 13.7978 19.9493 12.887 19.9493C11.9762 19.9493 11.2378 20.6877 11.2378 21.5985C11.2378 22.5093 11.9762 23.2477 12.887 23.2477Z" fill="white"/>
<path d="M10.2669 29.6188C11.1777 29.6188 11.9161 28.8805 11.9161 27.9696C11.9161 27.0588 11.1777 26.3204 10.2669 26.3204C9.35605 26.3204 8.61768 27.0588 8.61768 27.9696C8.61768 28.8805 9.35605 29.6188 10.2669 29.6188Z" fill="white"/>
<path d="M21.8111 7.089C22.2151 7.089 22.5426 6.7615 22.5426 6.3575C22.5426 5.9535 22.2151 5.626 21.8111 5.626C21.4071 5.626 21.0796 5.9535 21.0796 6.3575C21.0796 6.7615 21.4071 7.089 21.8111 7.089Z" fill="white"/>
<path d="M25.6282 5.51928C26.0322 5.51928 26.3597 5.19178 26.3597 4.78778C26.3597 4.38379 26.0322 4.05628 25.6282 4.05628C25.2242 4.05628 24.8967 4.38379 24.8967 4.78778C24.8967 5.19178 25.2242 5.51928 25.6282 5.51928Z" fill="white"/>
<path d="M29.6177 4.48179C30.0217 4.48179 30.3492 4.15429 30.3492 3.75029C30.3492 3.34629 30.0217 3.01879 29.6177 3.01879C29.2137 3.01879 28.8862 3.34629 28.8862 3.75029C28.8862 4.15429 29.2137 4.48179 29.6177 4.48179Z" fill="white"/>
<path fill-rule="evenodd" clip-rule="evenodd" d="M18.1941 9.17675C18.5931 9.17675 18.9256 8.84425 18.9256 8.44525C18.9256 8.04625 18.5931 7.71375 18.1941 7.71375C17.7951 7.71375 17.4626 8.04625 17.4626 8.44525C17.4626 8.85755 17.7951 9.17675 18.1941 9.17675Z" fill="white"/>
<path d="M11.9954 14.6438C12.3994 14.6438 12.7269 14.3163 12.7269 13.9123C12.7269 13.5083 12.3994 13.1808 11.9954 13.1808C11.5914 13.1808 11.2639 13.5083 11.2639 13.9123C11.2639 14.3163 11.5914 14.6438 11.9954 14.6438Z" fill="white"/>
<path d="M14.9212 11.6903C15.3252 11.6903 15.6527 11.3628 15.6527 10.9588C15.6527 10.5548 15.3252 10.2273 14.9212 10.2273C14.5172 10.2273 14.1897 10.5548 14.1897 10.9588C14.1897 11.3628 14.5172 11.6903 14.9212 11.6903Z" fill="white"/>
<path d="M5.82501 25.2841C6.229 25.2841 6.55651 24.9566 6.55651 24.5526C6.55651 24.1486 6.229 23.8211 5.82501 23.8211C5.42101 23.8211 5.09351 24.1486 5.09351 24.5526C5.09351 24.9566 5.42101 25.2841 5.82501 25.2841Z" fill="white"/>
<path d="M7.40753 21.479C7.81152 21.479 8.13903 21.1515 8.13903 20.7475C8.13903 20.3435 7.81152 20.016 7.40753 20.016C7.00353 20.016 6.67603 20.3435 6.67603 20.7475C6.67603 21.1515 7.00353 21.479 7.40753 21.479Z" fill="white"/>
<path d="M9.45489 17.8755C9.85889 17.8755 10.1864 17.548 10.1864 17.144C10.1864 16.74 9.85889 16.4125 9.45489 16.4125C9.05089 16.4125 8.72339 16.74 8.72339 17.144C8.72339 17.548 9.05089 17.8755 9.45489 17.8755Z" fill="white"/>
<path d="M4.7337 29.3134C5.13769 29.3134 5.4652 28.9859 5.4652 28.5819C5.4652 28.1779 5.13769 27.8504 4.7337 27.8504C4.3297 27.8504 4.0022 28.1779 4.0022 28.5819C4.0022 28.9859 4.3297 29.3134 4.7337 29.3134Z" fill="white"/>
<path fill-rule="evenodd" clip-rule="evenodd" d="M33.7679 3.96376C34.1669 3.96376 34.4994 3.63126 34.4994 3.23226C34.4994 2.83326 34.1669 2.50076 33.7679 2.50076C33.3689 2.50076 33.0364 2.83326 33.0364 3.23226C33.0364 3.63126 33.3556 3.96376 33.7679 3.96376Z" fill="white"/>
<path d="M4.32191 26.893C4.62307 26.893 4.86721 26.6489 4.86721 26.3477C4.86721 26.0465 4.62307 25.8024 4.32191 25.8024C4.02075 25.8024 3.77661 26.0465 3.77661 26.3477C3.77661 26.6489 4.02075 26.893 4.32191 26.893Z" fill="white"/>
<path fill-rule="evenodd" clip-rule="evenodd" d="M5.13257 22.3567C5.13257 22.6626 5.37197 22.902 5.67787 22.902C5.98377 22.902 6.22317 22.6626 6.22317 22.3567C6.22317 22.0508 5.98377 21.8114 5.67787 21.8114C5.37197 21.8114 5.13257 22.0641 5.13257 22.3567Z" fill="white"/>
<path fill-rule="evenodd" clip-rule="evenodd" d="M7.0083 18.5005C7.0083 18.8064 7.2477 19.0458 7.5536 19.0458C7.8595 19.0458 8.0989 18.8064 8.0989 18.5005C8.0989 18.1946 7.8595 17.9552 7.5536 17.9552C7.2477 17.9552 7.0083 18.1946 7.0083 18.5005Z" fill="white"/>
<path d="M9.94789 15.5871C10.249 15.5871 10.4932 15.3429 10.4932 15.0418C10.4932 14.7406 10.249 14.4965 9.94789 14.4965C9.64673 14.4965 9.40259 14.7406 9.40259 15.0418C9.40259 15.3429 9.64673 15.5871 9.94789 15.5871Z" fill="white"/>
<path d="M12.7538 12.3426C13.055 12.3426 13.2991 12.0985 13.2991 11.7973C13.2991 11.4961 13.055 11.252 12.7538 11.252C12.4526 11.252 12.2085 11.4961 12.2085 11.7973C12.2085 12.0985 12.4526 12.3426 12.7538 12.3426Z" fill="white"/>
<path d="M15.933 9.53528C16.2342 9.53528 16.4783 9.29114 16.4783 8.98998C16.4783 8.68882 16.2342 8.44468 15.933 8.44468C15.6318 8.44468 15.3877 8.68882 15.3877 8.98998C15.3877 9.29114 15.6318 9.53528 15.933 9.53528Z" fill="white"/>
<path d="M19.483 7.15515C19.7842 7.15515 20.0283 6.91101 20.0283 6.60985C20.0283 6.30869 19.7842 6.06455 19.483 6.06455C19.1819 6.06455 18.9377 6.30869 18.9377 6.60985C18.9377 6.91101 19.1819 7.15515 19.483 7.15515Z" fill="white"/>
<path d="M23.3012 5.30726C23.6023 5.30726 23.8465 5.06312 23.8465 4.76196C23.8465 4.4608 23.6023 4.21666 23.3012 4.21666C23 4.21666 22.7559 4.4608 22.7559 4.76196C22.7559 5.06312 23 5.30726 23.3012 5.30726Z" fill="white"/>
<path d="M27.3297 3.95044C27.6309 3.95044 27.875 3.7063 27.875 3.40514C27.875 3.10398 27.6309 2.85984 27.3297 2.85984C27.0286 2.85984 26.7844 3.10398 26.7844 3.40514C26.7844 3.7063 27.0286 3.95044 27.3297 3.95044Z" fill="white"/>
<path d="M31.4933 3.11164C31.7945 3.11164 32.0386 2.8675 32.0386 2.56634C32.0386 2.26518 31.7945 2.02104 31.4933 2.02104C31.1921 2.02104 30.948 2.26518 30.948 2.56634C30.948 2.8675 31.1921 3.11164 31.4933 3.11164Z" fill="white"/>
<path d="M33.6085 1.0906C33.9097 1.0906 34.1538 0.846462 34.1538 0.545301C34.1538 0.24414 33.9097 0 33.6085 0C33.3074 0 33.0632 0.24414 33.0632 0.545301C33.0632 0.846462 33.3074 1.0906 33.6085 1.0906Z" fill="white"/>
<path d="M29.0455 1.60864C29.3467 1.60864 29.5908 1.3645 29.5908 1.06333C29.5908 0.762174 29.3467 0.518036 29.0455 0.518036C28.7444 0.518036 28.5002 0.762174 28.5002 1.06333C28.5002 1.3645 28.7444 1.60864 29.0455 1.60864Z" fill="white"/>
<path d="M24.7772 2.77954C25.0784 2.77954 25.3225 2.5354 25.3225 2.23424C25.3225 1.93307 25.0784 1.68893 24.7772 1.68893C24.4761 1.68893 24.2319 1.93307 24.2319 2.23424C24.2319 2.5354 24.4761 2.77954 24.7772 2.77954Z" fill="white"/>
<path fill-rule="evenodd" clip-rule="evenodd" d="M20.547 4.5224C20.8529 4.5224 21.0923 4.283 21.0923 3.9771C21.0923 3.6712 20.8529 3.4318 20.547 3.4318C20.2411 3.4318 20.0017 3.6712 20.0017 3.9771C20.0017 4.2697 20.2411 4.5224 20.547 4.5224Z" fill="white"/>
<path fill-rule="evenodd" clip-rule="evenodd" d="M16.7438 6.72938C17.0497 6.72938 17.2891 6.48998 17.2891 6.18408C17.2891 5.87818 17.0497 5.63878 16.7438 5.63878C16.4379 5.63878 16.1985 5.87818 16.1985 6.18408C16.1852 6.47668 16.4379 6.72938 16.7438 6.72938Z" fill="white"/>
<path d="M13.0731 9.48277C13.3743 9.48277 13.6184 9.23863 13.6184 8.93747C13.6184 8.6363 13.3743 8.39217 13.0731 8.39217C12.772 8.39217 12.5278 8.6363 12.5278 8.93747C12.5278 9.23863 12.772 9.48277 13.0731 9.48277Z" fill="white"/>
<path d="M9.94789 12.5825C10.249 12.5825 10.4932 12.3383 10.4932 12.0372C10.4932 11.736 10.249 11.4919 9.94789 11.4919C9.64673 11.4919 9.40259 11.736 9.40259 12.0372C9.40259 12.3383 9.64673 12.5825 9.94789 12.5825Z" fill="white"/>
<path d="M7.16762 16.2399C7.46878 16.2399 7.71291 15.9958 7.71291 15.6946C7.71291 15.3935 7.46878 15.1493 7.16762 15.1493C6.86645 15.1493 6.62231 15.3935 6.62231 15.6946C6.62231 15.9958 6.86645 16.2399 7.16762 16.2399Z" fill="white"/>
<path d="M4.95985 20.0294C5.26101 20.0294 5.50515 19.7852 5.50515 19.4841C5.50515 19.1829 5.26101 18.9388 4.95985 18.9388C4.65869 18.9388 4.41455 19.1829 4.41455 19.4841C4.41455 19.7852 4.65869 20.0294 4.95985 20.0294Z" fill="white"/>
<path d="M3.20497 24.2858C3.50613 24.2858 3.75027 24.0417 3.75027 23.7405C3.75027 23.4393 3.50613 23.1952 3.20497 23.1952C2.90381 23.1952 2.65967 23.4393 2.65967 23.7405C2.65967 24.0417 2.90381 24.2858 3.20497 24.2858Z" fill="white"/>
<path d="M2.07362 28.5422C2.37478 28.5422 2.61892 28.298 2.61892 27.9969C2.61892 27.6957 2.37478 27.4516 2.07362 27.4516C1.77246 27.4516 1.52832 27.6957 1.52832 27.9969C1.52832 28.298 1.77246 28.5422 2.07362 28.5422Z" fill="white"/>
<path fill-rule="evenodd" clip-rule="evenodd" d="M21.6776 8.53826C21.6776 7.96636 21.2121 7.50086 20.6402 7.50086C20.0683 7.50086 19.6028 7.96636 19.6028 8.53826C19.6028 9.11016 20.0683 9.57566 20.6402 9.57566C21.2121 9.58896 21.6776 9.12346 21.6776 8.53826Z" fill="white"/>
<path fill-rule="evenodd" clip-rule="evenodd" d="M26.905 5.50669C26.905 6.07859 27.3705 6.54409 27.9424 6.54409C28.5143 6.54409 28.9798 6.07859 28.9798 5.50669C28.9798 4.93479 28.5143 4.46929 27.9424 4.46929C27.3705 4.46929 26.905 4.92149 26.905 5.50669Z" fill="white"/>
<path d="M14.3494 14.3643C14.9224 14.3643 15.3868 13.8998 15.3868 13.3269C15.3868 12.754 14.9224 12.2895 14.3494 12.2895C13.7765 12.2895 13.312 12.754 13.312 13.3269C13.312 13.8998 13.7765 14.3643 14.3494 14.3643Z" fill="white"/>
<path d="M9.52178 20.6275C10.0947 20.6275 10.5592 20.1631 10.5592 19.5901C10.5592 19.0172 10.0947 18.5527 9.52178 18.5527C8.94884 18.5527 8.48438 19.0172 8.48438 19.5901C8.48438 20.1631 8.94884 20.6275 9.52178 20.6275Z" fill="white"/>
<path fill-rule="evenodd" clip-rule="evenodd" d="M6.51567 25.8279C5.94377 25.8279 5.47827 26.2934 5.47827 26.8653C5.47827 27.4372 5.94377 27.9027 6.51567 27.9027C7.08757 27.9027 7.55307 27.4372 7.55307 26.8653C7.55307 26.2934 7.08757 25.8279 6.51567 25.8279Z" fill="white"/>
<path d="M24.777 9.50946C25.4822 9.50946 26.0538 8.93781 26.0538 8.23266C26.0538 7.5275 25.4822 6.95586 24.777 6.95586C24.0719 6.95586 23.5002 7.5275 23.5002 8.23266C23.5002 8.93781 24.0719 9.50946 24.777 9.50946Z" fill="white"/>
<path d="M18.2333 13.3131C18.9385 13.3131 19.5101 12.7415 19.5101 12.0363C19.5101 11.3312 18.9385 10.7595 18.2333 10.7595C17.5282 10.7595 16.9565 11.3312 16.9565 12.0363C16.9565 12.7415 17.5282 13.3131 18.2333 13.3131Z" fill="white"/>
<path d="M12.9133 18.5531C13.6184 18.5531 14.1901 17.9814 14.1901 17.2763C14.1901 16.5711 13.6184 15.9995 12.9133 15.9995C12.2081 15.9995 11.6365 16.5711 11.6365 17.2763C11.6365 17.9814 12.2081 18.5531 12.9133 18.5531Z" fill="white"/>
<path fill-rule="evenodd" clip-rule="evenodd" d="M9.26923 25.0704C9.97413 25.0704 10.546 24.4985 10.546 23.7936C10.546 23.0887 9.97413 22.5168 9.26923 22.5168C8.56433 22.5168 7.99243 23.0887 7.99243 23.7936C7.99243 24.4985 8.56433 25.0704 9.26923 25.0704Z" fill="white"/>
<path d="M22.1831 18.7132C23.2923 18.7132 24.1914 17.814 24.1914 16.7049C24.1914 15.5957 23.2923 14.6966 22.1831 14.6966C21.074 14.6966 20.1748 15.5957 20.1748 16.7049C20.1748 17.814 21.074 18.7132 22.1831 18.7132Z" fill="white"/>
<path d="M27.0251 15.8136C28.1343 15.8136 29.0334 14.9145 29.0334 13.8053C29.0334 12.6962 28.1343 11.797 27.0251 11.797C25.916 11.797 25.0168 12.6962 25.0168 13.8053C25.0168 14.9145 25.916 15.8136 27.0251 15.8136Z" fill="white"/>
<path d="M32.7305 13.9785C33.8396 13.9785 34.7388 13.0793 34.7388 11.9702C34.7388 10.861 33.8396 9.96188 32.7305 9.96188C31.6213 9.96188 30.7222 10.861 30.7222 11.9702C30.7222 13.0793 31.6213 13.9785 32.7305 13.9785Z" fill="white"/>
<path d="M17.9409 22.9029C19.0501 22.9029 19.9492 22.0037 19.9492 20.8946C19.9492 19.7854 19.0501 18.8863 17.9409 18.8863C16.8318 18.8863 15.9326 19.7854 15.9326 20.8946C15.9326 22.0037 16.8318 22.9029 17.9409 22.9029Z" fill="white"/>
<path d="M15.6897 27.9372C16.7145 27.5127 17.2011 26.3379 16.7766 25.3131C16.3522 24.2884 15.1773 23.8018 14.1526 24.2263C13.1278 24.6507 12.6412 25.8255 13.0657 26.8503C13.4902 27.875 14.665 28.3617 15.6897 27.9372Z" fill="white"/>
<path fill-rule="evenodd" clip-rule="evenodd" d="M33.9673 63.8799C33.9673 63.574 34.2067 63.3346 34.5126 63.3346C34.8185 63.3346 35.0579 63.574 35.0579 63.8799C35.0579 64.1858 34.8185 64.4252 34.5126 64.4252C34.22 64.4252 33.9673 64.1725 33.9673 63.8799Z" fill="white"/>
<path d="M34.327 61.7391C34.731 61.7391 35.0585 61.4116 35.0585 61.0076C35.0585 60.6036 34.731 60.2761 34.327 60.2761C33.923 60.2761 33.5955 60.6036 33.5955 61.0076C33.5955 61.4116 33.923 61.7391 34.327 61.7391Z" fill="white"/>
<path d="M31.9987 64.3327C32.7039 64.3327 33.2755 63.761 33.2755 63.0559C33.2755 62.3507 32.7039 61.7791 31.9987 61.7791C31.2936 61.7791 30.7219 62.3507 30.7219 63.0559C30.7219 63.761 31.2936 64.3327 31.9987 64.3327Z" fill="white"/>
<path d="M28.8863 61.8855C29.7971 61.8855 30.5355 61.1472 30.5355 60.2363C30.5355 59.3255 29.7971 58.5871 28.8863 58.5871C27.9754 58.5871 27.2371 59.3255 27.2371 60.2363C27.2371 61.1472 27.9754 61.8855 28.8863 61.8855Z" fill="white"/>
<path d="M24.0845 58.2164C24.4331 57.3749 24.0335 56.4102 23.192 56.0616C22.3505 55.713 21.3857 56.1126 21.0372 56.9541C20.6886 57.7957 21.0882 58.7604 21.9297 59.109C22.7712 59.4576 23.736 59.058 24.0845 58.2164Z" fill="white"/>
<path d="M17.1162 55.0092C18.0271 55.0092 18.7654 54.2708 18.7654 53.36C18.7654 52.4491 18.0271 51.7108 17.1162 51.7108C16.2054 51.7108 15.467 52.4491 15.467 53.36C15.467 54.2708 16.2054 55.0092 17.1162 55.0092Z" fill="white"/>
<path d="M12.8867 49.5563C13.7976 49.5563 14.536 48.8179 14.536 47.9071C14.536 46.9963 13.7976 46.2579 12.8867 46.2579C11.9759 46.2579 11.2375 46.9963 11.2375 47.9071C11.2375 48.8179 11.9759 49.5563 12.8867 49.5563Z" fill="white"/>
<path d="M10.2669 43.1852C11.1777 43.1852 11.9161 42.4468 11.9161 41.536C11.9161 40.6252 11.1777 39.8868 10.2669 39.8868C9.35605 39.8868 8.61768 40.6252 8.61768 41.536C8.61768 42.4468 9.35605 43.1852 10.2669 43.1852Z" fill="white"/>
<path d="M21.8111 63.8793C22.2151 63.8793 22.5426 63.5518 22.5426 63.1478C22.5426 62.7438 22.2151 62.4163 21.8111 62.4163C21.4071 62.4163 21.0796 62.7438 21.0796 63.1478C21.0796 63.5518 21.4071 63.8793 21.8111 63.8793Z" fill="white"/>
<path d="M25.6282 65.4491C26.0322 65.4491 26.3597 65.1216 26.3597 64.7176C26.3597 64.3136 26.0322 63.9861 25.6282 63.9861C25.2242 63.9861 24.8967 64.3136 24.8967 64.7176C24.8967 65.1216 25.2242 65.4491 25.6282 65.4491Z" fill="white"/>
<path d="M29.6177 66.4865C30.0217 66.4865 30.3492 66.159 30.3492 65.755C30.3492 65.351 30.0217 65.0235 29.6177 65.0235C29.2137 65.0235 28.8862 65.351 28.8862 65.755C28.8862 66.159 29.2137 66.4865 29.6177 66.4865Z" fill="white"/>
<path fill-rule="evenodd" clip-rule="evenodd" d="M18.1939 60.3286C18.5929 60.3286 18.9254 60.6611 18.9254 61.0601C18.9254 61.4591 18.5929 61.7916 18.1939 61.7916C17.7949 61.7916 17.4624 61.4591 17.4624 61.0601C17.4624 60.6478 17.7949 60.3286 18.1939 60.3286Z" fill="white"/>
<path d="M11.9954 56.326C12.3994 56.326 12.7269 55.9985 12.7269 55.5945C12.7269 55.1905 12.3994 54.863 11.9954 54.863C11.5914 54.863 11.2639 55.1905 11.2639 55.5945C11.2639 55.9985 11.5914 56.326 11.9954 56.326Z" fill="white"/>
<path d="M14.9212 59.278C15.3252 59.278 15.6527 58.9505 15.6527 58.5465C15.6527 58.1426 15.3252 57.815 14.9212 57.815C14.5172 57.815 14.1897 58.1426 14.1897 58.5465C14.1897 58.9505 14.5172 59.278 14.9212 59.278Z" fill="white"/>
<path d="M5.82501 45.6857C6.229 45.6857 6.55651 45.3582 6.55651 44.9542C6.55651 44.5502 6.229 44.2227 5.82501 44.2227C5.42101 44.2227 5.09351 44.5502 5.09351 44.9542C5.09351 45.3582 5.42101 45.6857 5.82501 45.6857Z" fill="white"/>
<path d="M7.40753 49.4893C7.81152 49.4893 8.13903 49.1618 8.13903 48.7578C8.13903 48.3538 7.81152 48.0263 7.40753 48.0263C7.00353 48.0263 6.67603 48.3538 6.67603 48.7578C6.67603 49.1618 7.00353 49.4893 7.40753 49.4893Z" fill="white"/>
<path d="M9.45562 53.0943C9.85962 53.0943 10.1871 52.7668 10.1871 52.3628C10.1871 51.9588 9.85962 51.6313 9.45562 51.6313C9.05162 51.6313 8.72412 51.9588 8.72412 52.3628C8.72412 52.7668 9.05162 53.0943 9.45562 53.0943Z" fill="white"/>
<path d="M4.7337 41.6563C5.13769 41.6563 5.4652 41.3288 5.4652 40.9248C5.4652 40.5208 5.13769 40.1933 4.7337 40.1933C4.3297 40.1933 4.0022 40.5208 4.0022 40.9248C4.0022 41.3288 4.3297 41.6563 4.7337 41.6563Z" fill="white"/>
<path fill-rule="evenodd" clip-rule="evenodd" d="M33.7679 65.543C34.1669 65.543 34.4994 65.8755 34.4994 66.2745C34.4994 66.6735 34.1669 67.006 33.7679 67.006C33.3689 67.006 33.0364 66.6735 33.0364 66.2745C33.0364 65.8755 33.3556 65.543 33.7679 65.543Z" fill="white"/>
<path d="M4.32167 43.7038C4.62283 43.7038 4.86697 43.4597 4.86697 43.1585C4.86697 42.8573 4.62283 42.6132 4.32167 42.6132C4.02051 42.6132 3.77637 42.8573 3.77637 43.1585C3.77637 43.4597 4.02051 43.7038 4.32167 43.7038Z" fill="white"/>
<path fill-rule="evenodd" clip-rule="evenodd" d="M5.1333 47.1481C5.1333 46.8422 5.3727 46.6028 5.6786 46.6028C5.9845 46.6028 6.2239 46.8422 6.2239 47.1481C6.2239 47.454 5.9845 47.6934 5.6786 47.6934C5.3727 47.6934 5.1333 47.4407 5.1333 47.1481Z" fill="white"/>
<path fill-rule="evenodd" clip-rule="evenodd" d="M7.0083 51.0057C7.0083 50.6998 7.2477 50.4604 7.5536 50.4604C7.8595 50.4604 8.0989 50.6998 8.0989 51.0057C8.0989 51.3116 7.8595 51.551 7.5536 51.551C7.2477 51.551 7.0083 51.3116 7.0083 51.0057Z" fill="white"/>
<path d="M9.94764 55.0083C10.2488 55.0083 10.4929 54.7642 10.4929 54.463C10.4929 54.1619 10.2488 53.9177 9.94764 53.9177C9.64648 53.9177 9.40234 54.1619 9.40234 54.463C9.40234 54.7642 9.64648 55.0083 9.94764 55.0083Z" fill="white"/>
<path d="M12.7535 58.2542C13.0547 58.2542 13.2988 58.0101 13.2988 57.7089C13.2988 57.4077 13.0547 57.1636 12.7535 57.1636C12.4524 57.1636 12.2083 57.4077 12.2083 57.7089C12.2083 58.0101 12.4524 58.2542 12.7535 58.2542Z" fill="white"/>
<path d="M15.933 61.0601C16.2342 61.0601 16.4783 60.816 16.4783 60.5148C16.4783 60.2136 16.2342 59.9695 15.933 59.9695C15.6318 59.9695 15.3877 60.2136 15.3877 60.5148C15.3877 60.816 15.6318 61.0601 15.933 61.0601Z" fill="white"/>
<path d="M19.483 63.4416C19.7842 63.4416 20.0283 63.1975 20.0283 62.8963C20.0283 62.5952 19.7842 62.351 19.483 62.351C19.1819 62.351 18.9377 62.5952 18.9377 62.8963C18.9377 63.1975 19.1819 63.4416 19.483 63.4416Z" fill="white"/>
<path d="M23.3012 65.2895C23.6023 65.2895 23.8465 65.0454 23.8465 64.7442C23.8465 64.4431 23.6023 64.1989 23.3012 64.1989C23 64.1989 22.7559 64.4431 22.7559 64.7442C22.7559 65.0454 23 65.2895 23.3012 65.2895Z" fill="white"/>
<path d="M27.3309 66.6464C27.6321 66.6464 27.8762 66.4022 27.8762 66.1011C27.8762 65.7999 27.6321 65.5558 27.3309 65.5558C27.0298 65.5558 26.7856 65.7999 26.7856 66.1011C26.7856 66.4022 27.0298 66.6464 27.3309 66.6464Z" fill="white"/>
<path d="M31.4931 67.4837C31.7942 67.4837 32.0384 67.2396 32.0384 66.9384C32.0384 66.6373 31.7942 66.3931 31.4931 66.3931C31.1919 66.3931 30.9478 66.6373 30.9478 66.9384C30.9478 67.2396 31.1919 67.4837 31.4931 67.4837Z" fill="white"/>
<path d="M33.6085 69.5062C33.9097 69.5062 34.1538 69.2621 34.1538 68.9609C34.1538 68.6597 33.9097 68.4156 33.6085 68.4156C33.3074 68.4156 33.0632 68.6597 33.0632 68.9609C33.0632 69.2621 33.3074 69.5062 33.6085 69.5062Z" fill="white"/>
<path d="M29.046 68.9868C29.3472 68.9868 29.5913 68.7426 29.5913 68.4414C29.5913 68.1403 29.3472 67.8961 29.046 67.8961C28.7449 67.8961 28.5007 68.1403 28.5007 68.4414C28.5007 68.7426 28.7449 68.9868 29.046 68.9868Z" fill="white"/>
<path d="M24.777 67.8173C25.0782 67.8173 25.3223 67.5731 25.3223 67.272C25.3223 66.9708 25.0782 66.7267 24.777 66.7267C24.4758 66.7267 24.2317 66.9708 24.2317 67.272C24.2317 67.5731 24.4758 67.8173 24.777 67.8173Z" fill="white"/>
<path fill-rule="evenodd" clip-rule="evenodd" d="M20.547 64.9838C20.8529 64.9838 21.0923 65.2232 21.0923 65.5291C21.0923 65.835 20.8529 66.0744 20.547 66.0744C20.2411 66.0744 20.0017 65.835 20.0017 65.5291C20.0017 65.2365 20.2411 64.9838 20.547 64.9838Z" fill="white"/>
<path fill-rule="evenodd" clip-rule="evenodd" d="M16.7438 62.7754C17.0497 62.7754 17.2891 63.0148 17.2891 63.3207C17.2891 63.6266 17.0497 63.866 16.7438 63.866C16.4379 63.866 16.1985 63.6266 16.1985 63.3207C16.1852 63.0281 16.4379 62.7754 16.7438 62.7754Z" fill="white"/>
<path d="M13.0731 61.114C13.3743 61.114 13.6184 60.8699 13.6184 60.5687C13.6184 60.2676 13.3743 60.0234 13.0731 60.0234C12.772 60.0234 12.5278 60.2676 12.5278 60.5687C12.5278 60.8699 12.772 61.114 13.0731 61.114Z" fill="white"/>
<path d="M9.94764 58.0143C10.2488 58.0143 10.4929 57.7702 10.4929 57.469C10.4929 57.1679 10.2488 56.9237 9.94764 56.9237C9.64648 56.9237 9.40234 57.1679 9.40234 57.469C9.40234 57.7702 9.64648 58.0143 9.94764 58.0143Z" fill="white"/>
<path d="M7.16737 54.3569C7.46853 54.3569 7.71267 54.1127 7.71267 53.8116C7.71267 53.5104 7.46853 53.2663 7.16737 53.2663C6.86621 53.2663 6.62207 53.5104 6.62207 53.8116C6.62207 54.1127 6.86621 54.3569 7.16737 54.3569Z" fill="white"/>
<path d="M4.95961 50.566C5.26077 50.566 5.50491 50.3219 5.50491 50.0207C5.50491 49.7195 5.26077 49.4754 4.95961 49.4754C4.65844 49.4754 4.41431 49.7195 4.41431 50.0207C4.41431 50.3219 4.65844 50.566 4.95961 50.566Z" fill="white"/>
<path d="M3.20497 46.311C3.50613 46.311 3.75027 46.0669 3.75027 45.7657C3.75027 45.4645 3.50613 45.2204 3.20497 45.2204C2.90381 45.2204 2.65967 45.4645 2.65967 45.7657C2.65967 46.0669 2.90381 46.311 3.20497 46.311Z" fill="white"/>
<path d="M2.07362 42.0546C2.37478 42.0546 2.61892 41.8105 2.61892 41.5093C2.61892 41.2081 2.37478 40.964 2.07362 40.964C1.77246 40.964 1.52832 41.2081 1.52832 41.5093C1.52832 41.8105 1.77246 42.0546 2.07362 42.0546Z" fill="white"/>
<path fill-rule="evenodd" clip-rule="evenodd" d="M21.6776 60.9674C21.6776 61.5393 21.2121 62.0048 20.6402 62.0048C20.0683 62.0048 19.6028 61.5393 19.6028 60.9674C19.6028 60.3955 20.0683 59.93 20.6402 59.93C21.2121 59.9167 21.6776 60.3822 21.6776 60.9674Z" fill="white"/>
<path fill-rule="evenodd" clip-rule="evenodd" d="M26.905 64.0002C26.905 63.4283 27.3705 62.9628 27.9424 62.9628C28.5143 62.9628 28.9798 63.4283 28.9798 64.0002C28.9798 64.5721 28.5143 65.0376 27.9424 65.0376C27.3705 65.0376 26.905 64.5854 26.905 64.0002Z" fill="white"/>
<path d="M14.3494 57.2174C14.9224 57.2174 15.3868 56.7529 15.3868 56.18C15.3868 55.607 14.9224 55.1426 14.3494 55.1426C13.7765 55.1426 13.312 55.607 13.312 56.18C13.312 56.7529 13.7765 57.2174 14.3494 57.2174Z" fill="white"/>
<path d="M9.52153 50.9527C10.0945 50.9527 10.5589 50.4882 10.5589 49.9153C10.5589 49.3423 10.0945 48.8779 9.52153 48.8779C8.94859 48.8779 8.48413 49.3423 8.48413 49.9153C8.48413 50.4882 8.94859 50.9527 9.52153 50.9527Z" fill="white"/>
<path fill-rule="evenodd" clip-rule="evenodd" d="M6.51567 43.6775C5.94377 43.6775 5.47827 43.212 5.47827 42.6401C5.47827 42.0682 5.94377 41.6027 6.51567 41.6027C7.08757 41.6027 7.55307 42.0682 7.55307 42.6401C7.55307 43.212 7.08757 43.6775 6.51567 43.6775Z" fill="white"/>
<path d="M24.7768 62.5501C25.482 62.5501 26.0536 61.9784 26.0536 61.2733C26.0536 60.5681 25.482 59.9965 24.7768 59.9965C24.0716 59.9965 23.5 60.5681 23.5 61.2733C23.5 61.9784 24.0716 62.5501 24.7768 62.5501Z" fill="white"/>
<path d="M18.2333 58.7464C18.9385 58.7464 19.5101 58.1748 19.5101 57.4696C19.5101 56.7644 18.9385 56.1928 18.2333 56.1928C17.5282 56.1928 16.9565 56.7644 16.9565 57.4696C16.9565 58.1748 17.5282 58.7464 18.2333 58.7464Z" fill="white"/>
<path d="M12.9133 53.5065C13.6184 53.5065 14.1901 52.9348 14.1901 52.2297C14.1901 51.5245 13.6184 50.9529 12.9133 50.9529C12.2081 50.9529 11.6365 51.5245 11.6365 52.2297C11.6365 52.9348 12.2081 53.5065 12.9133 53.5065Z" fill="white"/>
<path fill-rule="evenodd" clip-rule="evenodd" d="M9.26923 44.4355C9.97413 44.4355 10.546 45.0075 10.546 45.7124C10.546 46.4173 9.97413 46.9891 9.26923 46.9891C8.56433 46.9891 7.99243 46.4173 7.99243 45.7124C7.99243 45.0075 8.56433 44.4355 9.26923 44.4355Z" fill="white"/>
<path d="M22.1831 54.8091C23.2923 54.8091 24.1914 53.9099 24.1914 52.8008C24.1914 51.6916 23.2923 50.7925 22.1831 50.7925C21.074 50.7925 20.1748 51.6916 20.1748 52.8008C20.1748 53.9099 21.074 54.8091 22.1831 54.8091Z" fill="white"/>
<path d="M27.0249 57.7087C28.1341 57.7087 29.0332 56.8095 29.0332 55.7004C29.0332 54.5912 28.1341 53.6921 27.0249 53.6921C25.9157 53.6921 25.0166 54.5912 25.0166 55.7004C25.0166 56.8095 25.9157 57.7087 27.0249 57.7087Z" fill="white"/>
<path d="M32.7302 59.5438C33.8394 59.5438 34.7385 58.6446 34.7385 57.5355C34.7385 56.4263 33.8394 55.5272 32.7302 55.5272C31.6211 55.5272 30.7219 56.4263 30.7219 57.5355C30.7219 58.6446 31.6211 59.5438 32.7302 59.5438Z" fill="white"/>
<path d="M17.9409 50.6194C19.0501 50.6194 19.9492 49.7202 19.9492 48.6111C19.9492 47.5019 19.0501 46.6028 17.9409 46.6028C16.8318 46.6028 15.9326 47.5019 15.9326 48.6111C15.9326 49.7202 16.8318 50.6194 17.9409 50.6194Z" fill="white"/>
<path d="M16.7859 44.1896C17.2104 43.1649 16.7238 41.99 15.699 41.5656C14.6743 41.1411 13.4994 41.6277 13.075 42.6525C12.6505 43.6772 13.1371 44.852 14.1619 45.2765C15.1866 45.701 16.3614 45.2144 16.7859 44.1896Z" fill="white"/>
<path d="M36.2954 46.6836C42.8548 46.6836 48.1723 41.3661 48.1723 34.8067C48.1723 28.2472 42.8548 22.9298 36.2954 22.9298C29.7359 22.9298 24.4185 28.2472 24.4185 34.8067C24.4185 41.3661 29.7359 46.6836 36.2954 46.6836Z" fill="#95C11F"/>
<path d="M36.2949 1.75565V13.7921C41.9075 13.7921 47.1876 15.9734 51.1643 19.9501C55.141 23.9268 57.3222 29.1936 57.3222 34.8195C57.3222 40.4454 55.141 45.7122 51.1643 49.6889C47.1876 53.6656 41.9208 55.8468 36.2949 55.8468V67.8833C54.5425 67.8833 69.3454 53.0804 69.3454 34.8328C69.3454 16.5586 54.5558 1.75565 36.2949 1.75565Z" fill="white"/>
</svg>
